<svg width="64" height="64" viewBox="0 0 24 23" fill="none" xmlns="http://www.w3.org/2000/svg">
<circle cx="11.9155" cy="11.4864" r="8" fill="#00AAFE"/>
<path d="M17.6566 5.9151C16.179 4.39246 14.1571 3.51916 12.0356 3.48732C9.91407 3.45547 7.86682 4.26769 6.34418 5.7453C4.82154 7.2229 3.94824 9.24485 3.91639 11.3663C3.88455 13.4878 4.69677 15.5351 6.17437 17.0577L11.9155 11.4864L17.6566 5.9151Z" fill="#0072C2"/>
<ellipse cx="11.049" cy="12.7272" rx="6.50633" ry="6.50528" fill="#0072C2"/>
<path d="M13.3264 5.74159H12.4392L7.73323 17.7249C10.1885 13.6557 14.8352 14.7446 12.1483 11.8062C13.0803 10.4954 16.7686 9.87589 14.4462 8.06856L16.6423 5.56707H14.1408L10.3304 12.8388L13.3264 5.74159Z" fill="white"/>
</svg>
